<?xml version="1.0" encoding="UTF-8" standalone="no"?>
<!DOCTYPE svg PUBLIC "-//W3C//DTD SVG 1.1//EN" "http://www.w3.org/Graphics/SVG/1.1/DTD/svg11.dtd">
<svg xmlns="http://www.w3.org/2000/svg" xmlns:xlink="http://www.w3.org/1999/xlink" version="1.1" width="960pt" height="454pt" viewBox="0 0 960 454">
<g enable-background="new">
<clipPath id="cp0">
<path transform="matrix(1,0,0,-1,0,454)" d="M 0 .1600101 L 959.76 .1600101 L 959.76 454 L 0 454 Z "/>
</clipPath>
<g clip-path="url(#cp0)">
<path transform="matrix(1,0,0,-1,0,454)" d="M 0 454 L 959.76 454 L 959.76 .1600101 L 0 .1600101 Z " fill="#ffffff"/>
</g>
<path transform="matrix(1,0,0,-1,0,454)" d="M 0 454 L 960 454 L 960 .5000118 L 0 .5000118 Z " fill="#ffffff"/>
<path transform="matrix(1,0,0,-1,0,454)" d="M 715.3773 255.3251 C 715.1962 322.6602 714.2152 381.7716 714.0341 449.1066 L 944.323 449.1066 C 943.8753 308.3078 946.6275 159.2855 946.1798 18.48663 L 634.7231 17.13655 C 635.0268 68.39674 635.3304 119.6569 635.6341 170.9171 L 715.3773 255.3251 Z " fill="#e2f0d9" fill-rule="evenodd"/>
<path transform="matrix(.00007874016,0,0,.00007874016,634.7231,4.893402)" stroke-width="12700" stroke-linecap="butt" stroke-miterlimit="8" stroke-linejoin="miter" fill="none" stroke="#c5e0b4" d="M 1024309 2461025 C 1022009 1605870 1009550 855154.6 1007250 0 L 3931920 0 C 3926234 1788145 3961187 3680729 3955501 5468874 L 0 5486020 C 3857 4835016 7713 4184012 11570 3533007 L 1024309 2461025 Z "/>
<path transform="matrix(1,0,0,-1,0,454)" d="M 9.192756 179.397 L 627.5002 179.397 L 705.8764 257.7734 L 705.8764 336.1498 L 9.192756 336.1498 Z " fill="#fff2cc" fill-rule="evenodd"/>
<path transform="matrix(.00007874016,0,0,-.00007874016,9.192756,274.603)" stroke-width="12700" stroke-linecap="butt" stroke-miterlimit="8" stroke-linejoin="miter" fill="none" stroke="#ffd966" d="M 0 0 L 7852505 0 L 8847882 995380 L 8847882 1990760 L 0 1990760 Z "/>
<path transform="matrix(1,0,0,-1,0,454)" d="M 21.65945 242.1269 L 39.42988 268.5785 L 179.2665 268.5785 L 161.496 242.1269 Z " fill="#dae3f3" fill-rule="evenodd"/>
<path transform="matrix(.00007874016,0,0,.00007874016,21.65945,185.42151)" stroke-width="19050" stroke-linecap="butt" stroke-miterlimit="8" stroke-linejoin="miter" fill="none" stroke="#4472c4" d="M 0 335935 L 225684.5 0 L 2001609 0 L 1775925 335935 Z "/>
<text xml:space="preserve" transform="matrix(.24 0 -0 .24 49.71295 657.36)" font-size="50" font-family="Courier"><tspan y="-1891" x="0 30.210001 60.420003 90.630008 120.840007 151.05 181.26001 211.47002 241.68003 271.89 302.1 332.31 362.52 392.72999">ForceField.xml</tspan></text>
<path transform="matrix(1,0,0,-1,0,454)" d="M 191.9757 255.3526 L 207.8185 273.6855 L 329.7436 273.6855 L 349.5827 255.3526 L 329.7436 237.0196 L 207.8185 237.0196 L 191.9757 255.3526 Z " fill="#dae3f3" fill-rule="evenodd"/>
<path transform="matrix(.00007874016,0,0,.00007874016,191.9757,180.31452)" stroke-width="19050" stroke-linecap="butt" stroke-miterlimit="8" stroke-linejoin="miter" fill="none" stroke="#4472c4" d="M 0 232828.5 L 201203.2 0 L 1749652 0 L 2001609 232828.5 L 1749652 465657 L 201203.2 465657 L 0 232828.5 Z "/>
<text xml:space="preserve" transform="matrix(.24 0 -0 .24 212.7792 656.4)" font-size="50" font-family="Courier"><tspan y="-1891" x="0">d</tspan></text>
<text xml:space="preserve" transform="matrix(.24 0 -0 .24 220.0293 656.4)" font-size="50" font-family="Courier"><tspan y="-1891" x="0 30.210001 60.420003 90.630008 120.840007 151.05 181.26001 211.47002 241.68003 271.89 302.1 332.31 362.52 392.72999 422.93998">mff.Hamiltonian</tspan></text>
<path transform="matrix(1,0,0,-1,0,454)" d="M 362.8416 292.4228 L 369.6654 319.7181 L 519.5311 319.7181 L 512.7073 292.4228 Z " fill="#dae3f3" fill-rule="evenodd"/>
<path transform="matrix(.00007874016,0,0,.00007874016,362.8416,134.28189)" stroke-width="19050" stroke-linecap="butt" stroke-miterlimit="8" stroke-linejoin="miter" fill="none" stroke="#4472c4" d="M 0 346650 L 86662.32 0 L 1989956 0 L 1903294 346650 Z "/>
<text xml:space="preserve" transform="matrix(.24 0 -0 .24 386.8114 605.52)" font-size="50" font-family="Courier"><tspan y="-1891" x="0">o</tspan></text>
<text xml:space="preserve" transform="matrix(.24 0 -0 .24 394.0614 605.52)" font-size="50" font-family="Courier"><tspan y="-1891" x="0 30.210001 60.420003 90.630008 120.840007 151.05 181.26001 211.47002 241.68003 271.89 302.1 332.31 362.52 392.72999">penmm.Topology</tspan></text>
<path transform="matrix(1,0,0,-1,0,454)" d="M 170.3813 256.1027 L 186.9758 256.1026 L 186.9757 254.6026 L 170.3813 254.6027 Z M 185.9758 258.3526 L 191.9757 255.3525 L 185.9757 252.3526 Z " fill="#4472c4"/>
<path transform="matrix(1,0,0,-1,0,454)" d="M 369.4167 263.5731 C 369.4167 265.7944 371.2174 267.595 373.4386 267.595 L 504.1948 267.595 C 506.416 267.595 508.2167 265.7944 508.2167 263.5731 L 508.2167 247.4857 C 508.2167 245.2645 506.416 243.4638 504.1948 243.4638 L 373.4386 243.4638 C 371.2174 243.4638 369.4167 245.2645 369.4167 247.4857 Z " fill="#dae3f3" fill-rule="evenodd"/>
<path transform="matrix(.00007874016,0,0,.00007874016,369.4167,186.405)" stroke-width="19050" stroke-linecap="butt" stroke-miterlimit="8" stroke-linejoin="miter" fill="none" stroke="#4472c4" d="M 0 51078.48 C 0 22868.61 22868.58 0 51078.4 0 L 1711682 0 C 1739891 0 1762760 22868.61 1762760 51078.48 L 1762760 255388.5 C 1762760 283598.4 1739891 306467 1711682 306467 L 51078.4 306467 C 22868.58 306467 0 283598.4 0 255388.5 Z "/>
<text xml:space="preserve" transform="matrix(.24 0 -0 .24 380.8167 655.92)" font-size="50" font-family="Courier"><tspan y="-1891" x="0 30.210001 60.420003 90.630008 120.840007 151.05 181.26001 211.47002 241.68003 271.89 302.1 332.31 362.52 392.72999 422.93998 453.14997">Force Generators</tspan></text>
<path transform="matrix(1,0,0,-1,0,454)" d="M 349.5894 254.6026 L 364.4236 254.7348 L 364.4102 256.2348 L 349.5761 256.1025 Z M 363.4437 252.476 L 369.4167 255.5294 L 363.3902 258.4758 Z " fill="#4472c4"/>
<path transform="matrix(1,0,0,-1,0,454)" d="M 543.2774 281.0256 L 559.1201 295.793 L 681.0452 295.793 L 700.8844 281.0256 L 681.0452 266.2581 L 559.1201 266.2581 L 543.2774 281.0256 Z " fill="#dae3f3" fill-rule="evenodd"/>
<path transform="matrix(.00007874016,0,0,.00007874016,543.2774,158.207)" stroke-width="19050" stroke-linecap="butt" stroke-miterlimit="8" stroke-linejoin="miter" fill="none" stroke="#4472c4" d="M 0 187546.5 L 201203.2 0 L 1749652 0 L 2001609 187546.5 L 1749652 375093 L 201203.2 375093 L 0 187546.5 Z "/>
<text xml:space="preserve" transform="matrix(.24 0 -0 .24 567.7059 630.72)" font-size="50" font-family="Courier"><tspan y="-1891" x="0 30.210001 60.420003 90.630008 120.840007 151.05 181.26001 211.47002 241.68003 271.89 302.1 332.31 362.52 392.72999 422.93998">createPotential</tspan></text>
<path transform="matrix(1,0,0,-1,0,454)" d="M 523.2871 281.7756 L 538.2773 281.7755 L 538.2773 280.2755 L 523.2871 280.2756 Z M 537.2773 284.0255 L 543.2773 281.0255 L 537.2773 278.0255 Z " fill="#4472c4"/>
<path transform="matrix(1,0,0,-1,0,454)" d="M 370.7778 223.0245 L 509.5778 223.0245 L 509.5778 186.6729 L 370.7778 186.6729 Z " fill="#dae3f3"/>
<path transform="matrix(.00007874016,0,0,.00007874016,370.7778,230.9755)" stroke-width="19050" stroke-linecap="butt" stroke-miterlimit="8" stroke-linejoin="miter" fill="none" stroke="#4472c4" d="M 0 0 L 1762760 0 L 1762760 461665 L 0 461665 Z "/>
<text xml:space="preserve" transform="matrix(.24 0 -0 .24 389.4277 699.36)" font-size="50" font-family="Courier"><tspan y="-1891" x="0 30.210001 60.420003 90.630008 120.840007 151.05 181.26001 211.47002 241.68003 271.89 302.1 332.31 362.52 392.72999">Differentiable</tspan></text>
<text xml:space="preserve" transform="matrix(.24 0 -0 .24 403.9278 713.52)" font-size="50" font-family="Courier"><tspan y="-1891" x="0 30.210001 60.420003 90.630008 120.840007 151.05 181.26001 211.47002 241.68003 271.89">Parameters</tspan></text>
<path transform="matrix(1,0,0,-1,0,454)" d="M 733.5838 299.2014 L 839.5756 299.2014 L 839.5756 262.8499 L 733.5838 262.8499 Z " fill="#dae3f3"/>
<path transform="matrix(.00007874016,0,0,.00007874016,733.5838,154.79862)" stroke-width="19050" stroke-linecap="butt" stroke-miterlimit="8" stroke-linejoin="miter" fill="none" stroke="#4472c4" d="M 0 0 L 1346096 0 L 1346096 461665 L 0 461665 Z "/>
<text xml:space="preserve" transform="matrix(.24 0 -0 .24 772.0797 623.28)" font-size="50" font-family="Courier"><tspan y="-1891" x="0 30.210001 60.420003 90.630008">Init</tspan></text>
<text xml:space="preserve" transform="matrix(.24 0 -0 .24 746.7047 637.2)" font-size="50" font-family="Courier"><tspan y="-1891" x="0 30.210001 60.420003 90.630008 120.840007 151.05 181.26001 211.47002 241.68003 271.89 302.1">Calculators</tspan></text>
<path transform="matrix(1,0,0,-1,0,454)" d="M 700.8843 280.2755 L 728.5838 280.2756 L 728.5838 281.7756 L 700.8843 281.7755 Z M 727.5838 278.0256 L 733.5838 281.0256 L 727.5838 284.0256 Z " fill="#4472c4"/>
<path transform="matrix(-.00007874016,-0,0,.00007874016,516.1192,147.9295)" stroke-width="19050" stroke-linecap="butt" stroke-miterlimit="8" stroke-linejoin="miter" fill="none" stroke="#4472c4" d="M 0 0 L -94377.09 0 L -94377.09 641872 L 100362 641872 "/>
<path transform="matrix(1,0,0,-1,0,454)" d="M 440.9278 242.1269 L 440.9278 228.0245 L 439.4278 228.0245 L 439.4278 242.1268 Z M 443.1778 229.0245 L 440.1779 223.0245 L 437.1778 229.0245 Z " fill="#4472c4"/>
<path transform="matrix(1,0,0,-1,0,454)" d="M 654.7804 168.2889 L 670.6232 183.0564 L 792.5483 183.0564 L 812.3874 168.2889 L 792.5483 153.5215 L 670.6232 153.5215 L 654.7804 168.2889 Z " fill="#dae3f3" fill-rule="evenodd"/>
<path transform="matrix(.00007874016,0,0,.00007874016,654.7804,270.9436)" stroke-width="19050" stroke-linecap="butt" stroke-miterlimit="8" stroke-linejoin="miter" fill="none" stroke="#4472c4" d="M 0 187546.5 L 201203.2 0 L 1749652 0 L 2001609 187546.5 L 1749652 375093 L 201203.2 375093 L 0 187546.5 Z "/>
<text xml:space="preserve" transform="matrix(.24 0 -0 .24 690.0839 743.28)" font-size="50" font-family="Courier"><tspan y="-1891" x="0 30.210001 60.420003 90.630008 120.840007 151.05 181.26001 211.47002 241.68003 271.89 302.1 332.31">potential_fn</tspan></text>
<path transform="matrix(1,0,0,-1,0,454)" d="M 371.7864 144.3418 L 378.6102 171.6371 L 510.5864 171.6371 L 503.7626 144.3418 Z " fill="#dae3f3" fill-rule="evenodd"/>
<path transform="matrix(.00007874016,0,0,.00007874016,371.7864,282.3629)" stroke-width="19050" stroke-linecap="butt" stroke-miterlimit="8" stroke-linejoin="miter" fill="none" stroke="#4472c4" d="M 0 346650 L 86663.25 0 L 1762760 0 L 1676099 346650 Z "/>
<text xml:space="preserve" transform="matrix(.24 0 -0 .24 408.5613 753.6)" font-size="50" font-family="Courier"><tspan y="-1891" x="0 30.210001 60.420003 90.630008 120.840007 151.05 181.26001 211.47002 241.68003">Positions</tspan></text>
<path transform="matrix(1,0,0,-1,0,454)" d="M 370.5767 88.3163 L 509.3767 88.3163 L 509.3767 66.50535 L 370.5767 66.50535 Z " fill="#dae3f3"/>
<path transform="matrix(.00007874016,0,0,.00007874016,370.5767,365.68373)" stroke-width="19050" stroke-linecap="butt" stroke-miterlimit="8" stroke-linejoin="miter" fill="none" stroke="#4472c4" d="M 0 0 L 1762760 0 L 1762760 276999 L 0 276999 Z "/>
<text xml:space="preserve" transform="matrix(.24 0 -0 .24 421.8518 834.24)" font-size="50" font-family="Courier"><tspan y="-1891" x="0 30.210001 60.420003 90.630008 120.840007">Pairs</tspan></text>
<path transform="matrix(-.00007874016,-0,0,.00007874016,509.5778,249.1513)" stroke-width="12700" stroke-linecap="butt" stroke-miterlimit="8" stroke-linejoin="miter" fill="none" stroke="#4472c4" d="M 0 0 L -241408.7 0 L -241408.7 595112 L 30522 595112 "/>
<path transform="matrix(.00007874016,0,0,.00007874016,506.6962,335.5813)" stroke-width="12700" stroke-linecap="butt" stroke-miterlimit="8" stroke-linejoin="miter" fill="none" stroke="#4472c4" d="M 0 0 L 271931.1 0 L 271931.1 520801 L 34043 520801 "/>
<path transform="matrix(1,0,0,-1,0,454)" d="M 559.9781 129.3242 L 620.1807 129.3242 L 620.1807 107.5132 L 559.9781 107.5132 Z " fill="#dae3f3"/>
<path transform="matrix(.00007874016,0,0,.00007874016,559.9781,324.67579)" stroke-width="19050" stroke-linecap="butt" stroke-miterlimit="8" stroke-linejoin="miter" fill="none" stroke="#4472c4" d="M 0 0 L 764573 0 L 764573 276999 L 0 276999 Z "/>
<text xml:space="preserve" transform="matrix(.24 0 -0 .24 571.9544 793.2)" font-size="50" font-family="Courier"><tspan y="-1891" x="0 30.210001 60.420003 90.630008 120.840007">Input</tspan></text>
<path transform="matrix(1,0,0,-1,0,454)" d="M 506.6962 119.1687 L 554.9781 119.1687 L 554.9781 117.6687 L 506.6962 117.6687 Z M 553.9781 121.4187 L 559.9781 118.4187 L 553.9781 115.4187 Z " fill="#4472c4"/>
<path transform="matrix(1,0,0,-1,0,454)" d="M 655.7804 82.99502 L 671.5226 97.76246 L 792.6741 97.76246 L 812.3874 82.99502 L 792.6741 68.22758 L 671.5226 68.22758 L 655.7804 82.99502 Z " fill="#dae3f3" fill-rule="evenodd"/>
<path transform="matrix(.00007874016,0,0,.00007874016,655.7804,356.23756)" stroke-width="19050" stroke-linecap="butt" stroke-miterlimit="8" stroke-linejoin="miter" fill="none" stroke="#4472c4" d="M 0 187546.5 L 199926.6 0 L 1738550 0 L 1988909 187546.5 L 1738550 375093 L 199926.6 375093 L 0 187546.5 Z "/>
<text xml:space="preserve" transform="matrix(.24 0 -0 .24 672.4588 828.72)" font-size="50" font-family="Courier"><tspan y="-1891" x="0 30.210001 60.420003 90.630008 120.840007 151.05 181.26001 211.47002 241.68003 271.89 302.1 332.31 362.52 392.72999 422.93998 453.14997 483.35997">grad_potential_fn</tspan></text>
<path transform="matrix(1,0,0,-1,0,454)" d="M 731.1339 153.5216 L 731.1339 102.7625 L 729.6339 102.7625 L 729.6339 153.5216 Z M 733.3839 103.7625 L 730.3839 97.76254 L 727.3839 103.7625 Z " fill="#4472c4"/>
<text xml:space="preserve" transform="matrix(.24 0 -0 .24 741.2839 785.76)" font-size="50" font-family="Courier" font-weight="bold"><tspan y="-1891" x="0">j</tspan></text>
<text xml:space="preserve" transform="matrix(.24 0 -0 .24 748.5339 785.76)" font-size="50" font-family="Courier" font-weight="bold"><tspan y="-1891" x="0 30.210001 60.420003 90.630008 120.840007 151.05 181.26001">ax.grad</tspan></text>
<path transform="matrix(1,0,0,-1,0,454)" d="M 649.7803 167.539 L 639.9803 167.539 L 640.7303 168.289 L 640.7303 83.05826 L 639.981 83.80826 L 650.7813 83.79774 L 650.7798 82.29774 L 639.2303 82.30899 L 639.2303 169.039 L 649.7803 169.039 Z M 648.7803 171.289 L 654.7803 168.289 L 648.7803 165.289 Z M 649.8122 86.0581 L 655.7803 82.99512 L 649.749 80.05843 Z " fill="#4472c4"/>
<path transform="matrix(.00007874016,0,0,.00007874016,620.1807,335.5813)" stroke-width="19050" stroke-linecap="butt" stroke-miterlimit="8" stroke-linejoin="miter" fill="none" stroke="#4472c4" d="M 0 0 L 256539 1 "/>
<path transform="matrix(1,0,0,-1,0,454)" d="M 812.3873 167.5389 L 850.6908 167.539 L 850.6908 169.039 L 812.3873 169.0389 Z M 849.6908 165.289 L 855.6908 168.289 L 849.6908 171.289 Z " fill="#4472c4"/>
<path transform="matrix(1,0,0,-1,0,454)" d="M 812.3907 82.24514 L 850.6942 82.41871 L 850.6874 83.91869 L 812.3839 83.74513 Z M 849.7044 80.1642 L 855.6908 83.19136 L 849.6773 86.16414 Z " fill="#4472c4"/>
<path transform="matrix(1,0,0,-1,0,454)" d="M 855.6907 122.7898 L 930.4907 122.7898 L 930.4907 102.1906 L 855.6907 102.1906 Z " fill="#f2f2f2"/>
<path transform="matrix(.00007874016,0,0,.00007874016,855.6907,331.2102)" stroke-width="19050" stroke-linecap="butt" stroke-miterlimit="8" stroke-linejoin="miter" fill="none" stroke="#b4c7e7" d="M 0 0 L 949960 0 L 949960 261610 L 0 261610 Z "/>
<text xml:space="preserve" transform="matrix(.24 0 -0 .24 874.3407 798.72)" font-size="45.83333" font-family="Courier"><tspan y="-1891" x="0 26.042498 52.084997 78.127498 104.16999 130.2125">Forces</tspan></text>
<path transform="matrix(1,0,0,-1,0,454)" d="M 855.6907 102.5788 L 930.4907 102.5788 L 930.4907 83.19136 L 855.6907 83.19136 Z " fill="#f2f2f2"/>
<path transform="matrix(.00007874016,0,0,.00007874016,855.6907,351.4212)" stroke-width="19050" stroke-linecap="butt" stroke-miterlimit="8" stroke-linejoin="miter" fill="none" stroke="#b4c7e7" d="M 0 0 L 949960 0 L 949960 246221 L 0 246221 Z "/>
<text xml:space="preserve" transform="matrix(.24 0 -0 .24 875.0907 817.92007)" font-size="41.66666" font-family="Courier"><tspan y="-1891" x="0 24.999999 49.999998 74.99999 99.99999 124.99999">Virial</tspan></text>
<path transform="matrix(1,0,0,-1,0,454)" d="M 855.6907 83.16787 L 930.4907 83.16787 L 930.4907 63.78039 L 855.6907 63.78039 Z " fill="#f2f2f2"/>
<path transform="matrix(.00007874016,0,0,.00007874016,855.6907,370.83213)" stroke-width="19050" stroke-linecap="butt" stroke-miterlimit="8" stroke-linejoin="miter" fill="none" stroke="#b4c7e7" d="M 0 0 L 949960 0 L 949960 246221 L 0 246221 Z "/>
<text xml:space="preserve" transform="matrix(.24 0 -0 .24 881.0907 837.36)" font-size="41.66666" font-family="Courier"><tspan y="-1891" x="0 24.999999 49.999998 74.99999">dVdl</tspan></text>
<path transform="matrix(1,0,0,-1,0,454)" d="M 855.6907 63.75693 L 930.4907 63.75693 L 930.4907 44.36945 L 855.6907 44.36945 Z " fill="#f2f2f2"/>
<path transform="matrix(.00007874016,0,0,.00007874016,855.6907,390.24308)" stroke-width="19050" stroke-linecap="butt" stroke-miterlimit="8" stroke-linejoin="miter" fill="none" stroke="#b4c7e7" d="M 0 0 L 949960 0 L 949960 246221 L 0 246221 Z "/>
<text fill="#ff0000" xml:space="preserve" transform="matrix(.24 0 -0 .24 863.0907 856.8)" font-size="41.66666" font-family="Courier" font-weight="bold"><tspan y="-1891" x="0 24.999999 49.999998 74.99999 99.99999 124.99999 149.99999 174.99999 199.99999 224.99999">Param Grad</tspan></text>
<path transform="matrix(1,0,0,-1,0,454)" d="M 855.6907 178.5887 L 930.4907 178.5887 L 930.4907 157.9895 L 855.6907 157.9895 Z " fill="#f2f2f2"/>
<path transform="matrix(.00007874016,0,0,.00007874016,855.6907,275.41133)" stroke-width="19050" stroke-linecap="butt" stroke-miterlimit="8" stroke-linejoin="miter" fill="none" stroke="#b4c7e7" d="M 0 0 L 949960 0 L 949960 261610 L 0 261610 Z "/>
<text xml:space="preserve" transform="matrix(.24 0 -0 .24 874.3407 742.8)" font-size="45.83333" font-family="Courier"><tspan y="-1891" x="0 26.042498 52.084997 78.127498 104.16999 130.2125">Energy</tspan></text>
<path transform="matrix(1,0,0,-1,0,454)" d="M 787.3299 262.85 L 787.3299 222.2032 L 730.384 222.2032 L 731.134 222.9532 L 731.134 188.0565 L 729.634 188.0565 L 729.634 223.7032 L 786.5799 223.7032 L 785.8299 222.9532 L 785.8299 262.85 Z M 733.384 189.0565 L 730.384 183.0565 L 727.384 189.0565 Z " fill="#4472c4"/>
<text xml:space="preserve" transform="matrix(.24 0 -0 .24 48.93197 608.16006)" font-size="75" font-family="ArialMT"><tspan y="-1891" x="0 45.8325 70.815 112.44751 154.08002 174.93752 216.57003 258.2025">Frontend</tspan></text>
<text xml:space="preserve" transform="matrix(.24 0 -0 .24 846.4032 499.68)" font-size="75" font-family="ArialMT"><tspan y="-1891" x="0 50.002508 91.672519 129.17252 166.67252 208.34253 250.01255">Backend</tspan></text>
<path transform="matrix(1,0,0,-1,0,454)" d="M 749.1797 435.3608 L 823.9797 435.3608 L 823.9797 414.7616 L 749.1797 414.7616 Z " fill="#f2f2f2"/>
<path transform="matrix(.00007874016,0,0,.00007874016,749.1797,18.63919)" stroke-width="19050" stroke-linecap="butt" stroke-miterlimit="8" stroke-linejoin="miter" fill="none" stroke="#b4c7e7" d="M 0 0 L 949960 0 L 949960 261610 L 0 261610 Z "/>
<text xml:space="preserve" transform="matrix(.24 0 -0 .24 774.0797 486)" font-size="45.83333" font-family="Courier"><tspan y="-1891" x="0 26.042498 52.084997 78.127498">Bond</tspan></text>
<path transform="matrix(1,0,0,-1,0,454)" d="M 749.1797 412.7498 L 823.9797 412.7498 L 823.9797 393.3624 L 749.1797 393.3624 Z " fill="#f2f2f2"/>
<path transform="matrix(.00007874016,0,0,.00007874016,749.1797,41.250215)" stroke-width="19050" stroke-linecap="butt" stroke-miterlimit="8" stroke-linejoin="miter" fill="none" stroke="#b4c7e7" d="M 0 0 L 949960 0 L 949960 246221 L 0 246221 Z "/>
<text xml:space="preserve" transform="matrix(.24 0 -0 .24 771.5797 507.59999)" font-size="41.66666" font-family="Courier"><tspan y="-1891" x="0 24.999999 49.999998 74.99999 99.99999">Angle</tspan></text>
<path transform="matrix(1,0,0,-1,0,454)" d="M 749.1797 390.9389 L 823.9797 390.9389 L 823.9797 371.5514 L 749.1797 371.5514 Z " fill="#f2f2f2"/>
<path transform="matrix(.00007874016,0,0,.00007874016,749.1797,63.061098)" stroke-width="19050" stroke-linecap="butt" stroke-miterlimit="8" stroke-linejoin="miter" fill="none" stroke="#b4c7e7" d="M 0 0 L 949960 0 L 949960 246221 L 0 246221 Z "/>
<text xml:space="preserve" transform="matrix(.24 0 -0 .24 765.5797 529.44)" font-size="41.66666" font-family="Courier"><tspan y="-1891" x="0 24.999999 49.999998 74.99999 99.99999 124.99999 149.99999">Torsion</tspan></text>
<path transform="matrix(1,0,0,-1,0,454)" d="M 749.1797 370.728 L 823.9797 370.728 L 823.9797 351.3405 L 749.1797 351.3405 Z " fill="#f2f2f2"/>
<path transform="matrix(.00007874016,0,0,.00007874016,749.1797,83.272)" stroke-width="19050" stroke-linecap="butt" stroke-miterlimit="8" stroke-linejoin="miter" fill="none" stroke="#b4c7e7" d="M 0 0 L 949960 0 L 949960 246221 L 0 246221 Z "/>
<text xml:space="preserve" transform="matrix(.24 0 -0 .24 777.5797 549.6)" font-size="41.66666" font-family="Courier"><tspan y="-1891" x="0 24.999999 49.999998">vdW</tspan></text>
<path transform="matrix(1,0,0,-1,0,454)" d="M 749.1797 350.517 L 823.9797 350.517 L 823.9797 331.1295 L 749.1797 331.1295 Z " fill="#f2f2f2"/>
<path transform="matrix(.00007874016,0,0,.00007874016,749.1797,103.483)" stroke-width="19050" stroke-linecap="butt" stroke-miterlimit="8" stroke-linejoin="miter" fill="none" stroke="#b4c7e7" d="M 0 0 L 949960 0 L 949960 246221 L 0 246221 Z "/>
<text xml:space="preserve" transform="matrix(.24 0 -0 .24 765.5797 570)" font-size="41.66666" font-family="Courier"><tspan y="-1891" x="0 24.999999 49.999998 74.99999 99.99999 124.99999 149.99999">Coulomb</tspan></text>
<path transform="matrix(1,0,0,-1,0,454)" d="M 749.1797 330.8643 L 823.9797 330.8643 L 823.9797 311.4768 L 749.1797 311.4768 Z " fill="#f2f2f2"/>
<path transform="matrix(.00007874016,0,0,.00007874016,749.1797,123.13571)" stroke-width="19050" stroke-linecap="butt" stroke-miterlimit="8" stroke-linejoin="miter" fill="none" stroke="#b4c7e7" d="M 0 0 L 949960 0 L 949960 246221 L 0 246221 Z "/>
<text xml:space="preserve" transform="matrix(.24 0 -0 .24 759.5797 589.68)" font-size="41.66666" font-family="Courier"><tspan y="-1891" x="0 24.999999 49.999998 74.99999">MPID</tspan></text>
<text xml:space="preserve" transform="matrix(.24 0 -0 .24 783.5797 589.68)" font-size="41.66666" font-family="Courier"><tspan y="-1891" x="0">-</tspan></text>
<text xml:space="preserve" transform="matrix(.24 0 -0 .24 789.5797 589.68)" font-size="41.66666" font-family="Courier"><tspan y="-1891" x="0 24.999999 49.999998 74.99999">like</tspan></text>
<path transform="matrix(-.00007874016,-0,0,.00007874016,375.1983,296.01063)" stroke-width="12700" stroke-linecap="butt" stroke-miterlimit="8" stroke-linejoin="miter" fill="none" stroke="#4472c4" d="M 0 0 L 278005.2 0 L 278005.2 502548 L 6074 502548 "/>
<path transform="matrix(1,0,0,-1,0,454)" d="M 170.2851 138.6488 L 186.1279 153.4162 L 308.053 153.4162 L 327.8921 138.6488 L 308.053 123.8814 L 186.1279 123.8814 L 170.2851 138.6488 Z " fill="#dae3f3" fill-rule="evenodd"/>
<path transform="matrix(.00007874016,0,0,.00007874016,170.2851,300.5838)" stroke-width="19050" stroke-linecap="butt" stroke-miterlimit="8" stroke-linejoin="miter" fill="none" stroke="#4472c4" d="M 0 187546.5 L 201203.2 0 L 1749652 0 L 2001609 187546.5 L 1749652 375093 L 201203.2 375093 L 0 187546.5 Z "/>
<text xml:space="preserve" transform="matrix(.24 0 -0 .24 187.4636 773.04006)" font-size="50" font-family="Courier"><tspan y="-1891" x="0 30.210001 60.420003 90.630008 120.840007 151.05 181.26001 211.47002 241.68003 271.89 302.1 332.31 362.52 392.72999 422.93998 453.14997 483.35997">dmff.NeighborList</tspan></text>
<path transform="matrix(1,0,0,-1,0,454)" d="M 352.7697 139.1488 L 332.8921 139.1488 L 332.8921 138.1488 L 352.7697 138.1488 Z M 333.8921 141.6488 L 327.8921 138.6487 L 333.8921 135.6488 Z " fill="#4472c4"/>
<path transform="matrix(1,0,0,-1,0,454)" d="M 170.2851 138.1487 L 148.1008 138.1487 L 148.6008 138.6487 L 148.6008 77.41079 L 148.1008 77.91079 L 365.5767 77.91079 L 365.5767 76.91079 L 147.6008 76.91079 L 147.6008 139.1487 L 170.2851 139.1487 Z M 364.5768 80.41079 L 370.5768 77.41079 L 364.5768 74.41079 Z " fill="#4472c4"/>
<path transform="matrix(1,0,0,-1,0,454)" d="M 371.3081 104.7711 L 378.132 132.0664 L 510.1081 132.0664 L 503.2844 104.7711 Z " fill="#dae3f3" fill-rule="evenodd"/>
<path transform="matrix(.00007874016,0,0,.00007874016,371.3081,321.9336)" stroke-width="19050" stroke-linecap="butt" stroke-miterlimit="8" stroke-linejoin="miter" fill="none" stroke="#4472c4" d="M 0 346650 L 86663.25 0 L 1762760 0 L 1676099 346650 Z "/>
<text xml:space="preserve" transform="matrix(.24 0 -0 .24 429.833 793.2)" font-size="50" font-family="Courier"><tspan y="-1891" x="0 30.210001 60.420003">Box</tspan></text>
<path transform="matrix(-.00007874016,-0,0,.00007874016,507.1745,296.01063)" stroke-width="12700" stroke-linecap="butt" stroke-miterlimit="8" stroke-linejoin="miter" fill="none" stroke="#4472c4" d="M 0 0 L -271931.2 0 L -271931.2 502548 L 6074 502548 "/>
</g>
</svg>
